<?xml version="1.0" standalone="no"?>
<!DOCTYPE svg PUBLIC "-//W3C//DTD SVG 20010904//EN"
 "http://www.w3.org/TR/2001/REC-SVG-20010904/DTD/svg10.dtd">
<svg version="1.0" xmlns="http://www.w3.org/2000/svg"
 width="9382.000000pt" height="2234.000000pt" viewBox="0 0 9382.000000 2234.000000"
 preserveAspectRatio="xMidYMid meet">

<g transform="translate(0.000000,2234.000000) scale(0.100000,-0.100000)"
fill="#000000" stroke="none">
<path d="M9550 21575 l0 -55 -290 0 -290 0 0 -60 0 -60 -290 0 -290 0 0 -60 0
-60 -235 0 -235 0 0 -55 0 -55 -115 0 -115 0 0 -60 0 -60 -235 0 -235 0 0 -60
0 -60 -115 0 -115 0 0 -55 0 -55 -115 0 -115 0 0 -60 0 -60 -175 0 -175 0 0
-55 0 -55 -120 0 -120 0 0 -60 0 -60 -115 0 -115 0 0 -60 0 -60 -55 0 -55 0 0
-55 0 -55 -120 0 -120 0 0 -60 0 -60 -115 0 -115 0 0 -60 0 -60 -60 0 -60 0 0
-55 0 -55 -115 0 -115 0 0 -60 0 -60 -55 0 -55 0 0 -60 0 -60 -120 0 -120 0 0
-55 0 -55 -55 0 -55 0 0 -60 0 -60 -60 0 -60 0 0 -55 0 -55 -115 0 -115 0 0
-60 0 -60 -60 0 -60 0 0 -60 0 -60 -60 0 -60 0 0 -55 0 -55 -55 0 -55 0 0 -60
0 -60 -60 0 -60 0 0 -60 0 -60 -55 0 -55 0 0 -55 0 -55 -60 0 -60 0 0 -60 0
-60 -60 0 -60 0 0 -55 0 -55 -55 0 -55 0 0 -60 0 -60 -60 0 -60 0 0 -60 0 -60
-60 0 -60 0 0 -115 0 -115 -55 0 -55 0 0 -60 0 -60 -60 0 -60 0 0 -55 0 -55
-55 0 -55 0 0 -60 0 -60 -60 0 -60 0 0 -60 0 -60 -60 0 -60 0 0 -115 0 -115
-55 0 -55 0 0 -55 0 -55 -60 0 -60 0 0 -120 0 -120 -60 0 -60 0 0 -55 0 -55
-55 0 -55 0 0 -120 0 -120 -60 0 -60 0 0 -55 0 -55 -60 0 -60 0 0 -115 0 -115
-55 0 -55 0 0 -120 0 -120 -60 0 -60 0 0 -115 0 -115 -55 0 -55 0 0 -115 0
-115 -60 0 -60 0 0 -120 0 -120 -60 0 -60 0 0 -170 0 -170 -55 0 -55 0 0 -120
0 -120 -60 0 -60 0 0 -230 0 -230 -60 0 -60 0 0 -115 0 -115 -55 0 -55 0 0
-295 0 -295 -60 0 -60 0 0 -405 0 -405 -55 0 -55 0 0 -1515 0 -1515 55 0 55 0
0 -345 0 -345 60 0 60 0 0 -290 0 -290 55 0 55 0 0 -120 0 -120 60 0 60 0 0
-230 0 -230 60 0 60 0 0 -175 0 -175 55 0 55 0 0 -115 0 -115 60 0 60 0 0
-175 0 -175 60 0 60 0 0 -120 0 -120 55 0 55 0 0 -115 0 -115 60 0 60 0 0
-115 0 -115 55 0 55 0 0 -60 0 -60 60 0 60 0 0 -115 0 -115 60 0 60 0 0 -115
0 -115 55 0 55 0 0 -60 0 -60 60 0 60 0 0 -60 0 -60 60 0 60 0 0 -115 0 -115
55 0 55 0 0 -55 0 -55 60 0 60 0 0 -60 0 -60 60 0 60 0 0 -115 0 -115 55 0 55
0 0 -60 0 -60 60 0 60 0 0 -60 0 -60 55 0 55 0 0 -55 0 -55 60 0 60 0 0 -60 0
-60 60 0 60 0 0 -55 0 -55 55 0 55 0 0 -120 0 -120 120 0 120 0 0 -55 0 -55
55 0 55 0 0 -120 0 -120 115 0 115 0 0 -55 0 -55 60 0 60 0 0 -60 0 -60 -990
0 -990 0 0 -60 0 -60 60 0 60 0 0 -55 0 -55 60 0 60 0 0 -60 0 -60 115 0 115
0 0 -55 0 -55 60 0 60 0 0 -60 0 -60 55 0 55 0 0 -60 0 -60 60 0 60 0 0 -55 0
-55 55 0 55 0 0 -60 0 -60 60 0 60 0 0 -60 0 -60 -60 0 -60 0 0 -55 0 -55 -55
0 -55 0 0 -60 0 -60 -60 0 -60 0 0 -55 0 -55 -55 0 -55 0 0 -60 0 -60 -120 0
-120 0 0 -60 0 -60 -55 0 -55 0 0 -55 0 -55 -60 0 -60 0 0 -60 0 -60 1455 0
1455 0 0 -60 0 -60 55 0 55 0 0 930 0 930 -115 0 -115 0 0 60 0 60 -55 0 -55
0 0 60 0 60 -60 0 -60 0 0 55 0 55 -115 0 -115 0 0 60 0 60 -60 0 -60 0 0 60
0 60 -60 0 -60 0 0 55 0 55 -55 0 -55 0 0 60 0 60 -60 0 -60 0 0 60 0 60 -60
0 -60 0 0 55 0 55 -55 0 -55 0 0 60 0 60 -60 0 -60 0 0 55 0 55 -55 0 -55 0 0
60 0 60 -60 0 -60 0 0 60 0 60 -60 0 -60 0 0 55 0 55 -55 0 -55 0 0 60 0 60
-60 0 -60 0 0 115 0 115 -60 0 -60 0 0 60 0 60 -55 0 -55 0 0 115 0 115 -60 0
-60 0 0 60 0 60 -55 0 -55 0 0 55 0 55 -60 0 -60 0 0 120 0 120 -60 0 -60 0 0
115 0 115 -55 0 -55 0 0 60 0 60 -60 0 -60 0 0 115 0 115 -60 0 -60 0 0 115 0
115 -55 0 -55 0 0 115 0 115 -60 0 -60 0 0 120 0 120 -60 0 -60 0 0 115 0 115
-55 0 -55 0 0 115 0 115 -60 0 -60 0 0 235 0 235 -55 0 -55 0 0 175 0 175 -60
0 -60 0 0 170 0 170 -60 0 -60 0 0 295 0 295 -55 0 -55 0 0 345 0 345 -60 0
-60 0 0 1225 0 1225 60 0 60 0 0 345 0 345 55 0 55 0 0 295 0 295 60 0 60 0 0
115 0 115 60 0 60 0 0 230 0 230 55 0 55 0 0 175 0 175 60 0 60 0 0 120 0 120
55 0 55 0 0 115 0 115 60 0 60 0 0 175 0 175 60 0 60 0 0 55 0 55 55 0 55 0 0
120 0 120 60 0 60 0 0 175 0 175 60 0 60 0 0 55 0 55 55 0 55 0 0 115 0 115
60 0 60 0 0 60 0 60 60 0 60 0 0 60 0 60 55 0 55 0 0 115 0 115 60 0 60 0 0
115 0 115 55 0 55 0 0 60 0 60 60 0 60 0 0 55 0 55 60 0 60 0 0 60 0 60 55 0
55 0 0 60 0 60 60 0 60 0 0 55 0 55 60 0 60 0 0 120 0 120 55 0 55 0 0 55 0
55 60 0 60 0 0 60 0 60 55 0 55 0 0 60 0 60 120 0 120 0 0 55 0 55 55 0 55 0
0 115 0 115 120 0 120 0 0 60 0 60 55 0 55 0 0 60 0 60 60 0 60 0 0 55 0 55
115 0 115 0 0 60 0 60 60 0 60 0 0 60 0 60 55 0 55 0 0 55 0 55 120 0 120 0 0
60 0 60 115 0 115 0 0 55 0 55 60 0 60 0 0 60 0 60 170 0 170 0 0 60 0 60 60
0 60 0 0 55 0 55 60 0 60 0 0 60 0 60 175 0 175 0 0 60 0 60 115 0 115 0 0 55
0 55 115 0 115 0 0 60 0 60 175 0 175 0 0 60 0 60 175 0 175 0 0 55 0 55 115
0 115 0 0 60 0 60 235 0 235 0 0 55 0 55 350 0 350 0 0 60 0 60 230 0 230 0 0
60 0 60 1220 0 1220 0 0 -60 0 -60 350 0 350 0 0 -60 0 -60 290 0 290 0 0 -55
0 -55 235 0 235 0 0 -60 0 -60 115 0 115 0 0 -55 0 -55 175 0 175 0 0 -60 0
-60 175 0 175 0 0 -60 0 -60 115 0 115 0 0 -55 0 -55 115 0 115 0 0 -60 0 -60
175 0 175 0 0 -60 0 -60 60 0 60 0 0 -55 0 -55 115 0 115 0 0 -60 0 -60 115 0
115 0 0 -60 0 -60 60 0 60 0 0 -55 0 -55 115 0 115 0 0 -60 0 -60 120 0 120 0
0 -55 0 -55 55 0 55 0 0 -60 0 -60 60 0 60 0 0 -60 0 -60 115 0 115 0 0 -55 0
-55 60 0 60 0 0 -60 0 -60 55 0 55 0 0 -60 0 -60 60 0 60 0 0 -55 0 -55 115 0
115 0 0 -60 0 -60 60 0 60 0 0 -55 0 -55 60 0 60 0 0 -60 0 -60 55 0 55 0 0
-60 0 -60 60 0 60 0 0 -55 0 -55 55 0 55 0 0 -120 0 -120 120 0 120 0 0 -115
0 -115 55 0 55 0 0 -60 0 -60 60 0 60 0 0 -55 0 -55 60 0 60 0 0 -115 0 -115
55 0 55 0 0 -60 0 -60 60 0 60 0 0 -60 0 -60 60 0 60 0 0 -115 0 -115 55 0 55
0 0 -60 0 -60 60 0 60 0 0 -115 0 -115 55 0 55 0 0 -115 0 -115 60 0 60 0 0
-115 0 -115 60 0 60 0 0 -60 0 -60 55 0 55 0 0 -115 0 -115 60 0 60 0 0 -120
0 -120 60 0 60 0 0 -170 0 -170 55 0 55 0 0 -120 0 -120 60 0 60 0 0 -175 0
-175 55 0 55 0 0 -170 0 -170 60 0 60 0 0 -235 0 -235 60 0 60 0 0 -235 0
-235 55 0 55 0 0 -290 0 -290 60 0 60 0 0 -1335 0 -1335 -60 0 -60 0 0 -350 0
-350 -55 0 -55 0 0 -235 0 -235 -60 0 -60 0 0 -230 0 -230 -60 0 -60 0 0 -115
0 -115 -55 0 -55 0 0 -175 0 -175 -60 0 -60 0 0 -175 0 -175 -55 0 -55 0 0
-115 0 -115 -60 0 -60 0 0 -120 0 -120 -60 0 -60 0 0 -115 0 -115 -55 0 -55 0
0 -115 0 -115 -60 0 -60 0 0 -115 0 -115 -60 0 -60 0 0 -120 0 -120 -55 0 -55
0 0 -55 0 -55 -60 0 -60 0 0 -120 0 -120 -55 0 -55 0 0 -55 0 -55 -60 0 -60 0
0 -60 0 -60 -60 0 -60 0 0 -115 0 -115 -55 0 -55 0 0 -60 0 -60 -60 0 -60 0 0
-115 0 -115 -60 0 -60 0 0 -60 0 -60 -55 0 -55 0 0 -55 0 -55 -60 0 -60 0 0
-60 0 -60 -60 0 -60 0 0 -60 0 -60 -55 0 -55 0 0 -55 0 -55 -60 0 -60 0 0 -60
0 -60 -55 0 -55 0 0 -55 0 -55 -60 0 -60 0 0 -60 0 -60 -60 0 -60 0 0 -60 0
-60 -55 0 -55 0 0 -55 0 -55 -60 0 -60 0 0 -60 0 -60 -60 0 -60 0 0 -60 0 -60
-55 0 -55 0 0 -55 0 -55 -115 0 -115 0 0 -60 0 -60 -60 0 -60 0 0 -60 0 -60
-60 0 -60 0 0 -55 0 -55 -55 0 -55 0 0 -815 0 -815 1510 0 1510 0 0 60 0 60
-60 0 -60 0 0 55 0 55 -55 0 -55 0 0 60 0 60 -60 0 -60 0 0 60 0 60 -55 0 -55
0 0 55 0 55 -120 0 -120 0 0 60 0 60 -55 0 -55 0 0 55 0 55 -60 0 -60 0 0 60
0 60 60 0 60 0 0 60 0 60 55 0 55 0 0 55 0 55 60 0 60 0 0 60 0 60 115 0 115
0 0 60 0 60 60 0 60 0 0 55 0 55 55 0 55 0 0 60 0 60 60 0 60 0 0 55 0 55
-870 0 -870 0 0 175 0 175 55 0 55 0 0 60 0 60 115 0 115 0 0 60 0 60 60 0 60
0 0 55 0 55 60 0 60 0 0 60 0 60 55 0 55 0 0 60 0 60 60 0 60 0 0 115 0 115
60 0 60 0 0 55 0 55 55 0 55 0 0 60 0 60 60 0 60 0 0 60 0 60 60 0 60 0 0 55
0 55 55 0 55 0 0 120 0 120 60 0 60 0 0 55 0 55 55 0 55 0 0 60 0 60 60 0 60
0 0 115 0 115 60 0 60 0 0 60 0 60 55 0 55 0 0 115 0 115 60 0 60 0 0 115 0
115 60 0 60 0 0 120 0 120 55 0 55 0 0 55 0 55 60 0 60 0 0 115 0 115 55 0 55
0 0 175 0 175 60 0 60 0 0 60 0 60 60 0 60 0 0 175 0 175 55 0 55 0 0 175 0
175 60 0 60 0 0 175 0 175 60 0 60 0 0 175 0 175 55 0 55 0 0 290 0 290 60 0
60 0 0 230 0 230 60 0 60 0 0 1745 0 1745 -60 0 -60 0 0 290 0 290 -60 0 -60
0 0 235 0 235 -55 0 -55 0 0 230 0 230 -60 0 -60 0 0 120 0 120 -60 0 -60 0 0
175 0 175 -55 0 -55 0 0 170 0 170 -60 0 -60 0 0 120 0 120 -60 0 -60 0 0 115
0 115 -55 0 -55 0 0 115 0 115 -60 0 -60 0 0 120 0 120 -55 0 -55 0 0 115 0
115 -60 0 -60 0 0 115 0 115 -60 0 -60 0 0 60 0 60 -55 0 -55 0 0 115 0 115
-60 0 -60 0 0 60 0 60 -60 0 -60 0 0 55 0 55 -55 0 -55 0 0 115 0 115 -60 0
-60 0 0 60 0 60 -55 0 -55 0 0 60 0 60 -60 0 -60 0 0 115 0 115 -60 0 -60 0 0
60 0 60 -55 0 -55 0 0 55 0 55 -60 0 -60 0 0 60 0 60 -60 0 -60 0 0 60 0 60
-55 0 -55 0 0 55 0 55 -60 0 -60 0 0 60 0 60 -60 0 -60 0 0 55 0 55 -55 0 -55
0 0 60 0 60 -60 0 -60 0 0 60 0 60 -55 0 -55 0 0 55 0 55 -60 0 -60 0 0 60 0
60 -115 0 -115 0 0 60 0 60 -60 0 -60 0 0 55 0 55 -60 0 -60 0 0 60 0 60 -55
0 -55 0 0 55 0 55 -115 0 -115 0 0 60 0 60 -60 0 -60 0 0 60 0 60 -115 0 -115
0 0 55 0 55 -60 0 -60 0 0 60 0 60 -115 0 -115 0 0 60 0 60 -60 0 -60 0 0 55
0 55 -115 0 -115 0 0 60 0 60 -115 0 -115 0 0 60 0 60 -120 0 -120 0 0 55 0
55 -175 0 -175 0 0 60 0 60 -115 0 -115 0 0 55 0 55 -175 0 -175 0 0 60 0 60
-175 0 -175 0 0 60 0 60 -175 0 -175 0 0 55 0 55 -290 0 -290 0 0 60 0 60
-290 0 -290 0 0 60 0 60 -465 0 -465 0 0 55 0 55 -1220 0 -1220 0 0 -55z"/>
<path d="M12570 20585 l0 -115 -55 0 -55 0 0 -410 0 -410 230 0 230 0 0 -55 0
-55 60 0 60 0 0 115 0 115 -175 0 -175 0 0 350 0 350 60 0 60 0 0 115 0 115
-120 0 -120 0 0 -115z"/>
<path d="M10360 20180 l0 -410 60 0 60 0 0 235 0 235 60 0 60 0 0 55 0 55 115
0 115 0 0 -290 0 -290 55 0 55 0 0 60 0 60 60 0 60 0 0 175 0 175 -60 0 -60 0
0 115 0 115 -55 0 -55 0 0 60 0 60 -115 0 -115 0 0 -60 0 -60 -60 0 -60 0 0
60 0 60 -60 0 -60 0 0 -410z"/>
<path d="M11290 20530 l0 -60 -55 0 -55 0 0 -115 0 -115 55 0 55 0 0 -60 0
-60 120 0 120 0 0 -60 0 -60 55 0 55 0 0 -55 0 -55 -115 0 -115 0 0 55 0 55
-115 0 -115 0 0 -55 0 -55 55 0 55 0 0 -60 0 -60 235 0 235 0 0 60 0 60 55 0
55 0 0 115 0 115 -55 0 -55 0 0 60 0 60 -175 0 -175 0 0 55 0 55 175 0 175 0
0 60 0 60 -60 0 -60 0 0 60 0 60 -175 0 -175 0 0 -60z"/>
<path d="M8150 20355 l0 -115 60 0 60 0 0 115 0 115 -60 0 -60 0 0 -115z"/>
<path d="M9550 20410 l0 -60 -60 0 -60 0 0 -55 0 -55 115 0 115 0 0 55 0 55
120 0 120 0 0 -55 0 -55 -60 0 -60 0 0 -60 0 -60 -115 0 -115 0 0 -60 0 -60
-60 0 -60 0 0 -55 0 -55 60 0 60 0 0 -120 0 -120 115 0 115 0 0 60 0 60 175 0
175 0 0 290 0 290 -60 0 -60 0 0 60 0 60 -230 0 -230 0 0 -60z m350 -465 l0
-55 -120 0 -120 0 0 55 0 55 120 0 120 0 0 -55z"/>
<path d="M8730 20295 l0 -55 -55 0 -55 0 0 -175 0 -175 230 0 230 0 0 -120 0
-120 -55 0 -55 0 0 60 0 60 -120 0 -120 0 0 -60 0 -60 60 0 60 0 0 -55 0 -55
175 0 175 0 0 55 0 55 60 0 60 0 0 175 0 175 -235 0 -235 0 0 60 0 60 175 0
175 0 0 115 0 115 -235 0 -235 0 0 -55z"/>
<path d="M7690 20005 l0 -235 55 0 55 0 0 -60 0 -60 60 0 60 0 0 -170 0 -170
175 0 175 0 0 115 0 115 -115 0 -115 0 0 290 0 290 -60 0 -60 0 0 60 0 60
-115 0 -115 0 0 -235z"/>
<path d="M13500 20180 l0 -60 -55 0 -55 0 0 -60 0 -60 -60 0 -60 0 0 -230 0
-230 60 0 60 0 0 -60 0 -60 230 0 230 0 0 60 0 60 -55 0 -55 0 0 55 0 55 115
0 115 0 0 175 0 175 -60 0 -60 0 0 60 0 60 -55 0 -55 0 0 60 0 60 -120 0 -120
0 0 -60z m240 -235 l0 -55 -120 0 -120 0 0 55 0 55 120 0 120 0 0 -55z m0
-235 l0 -60 -60 0 -60 0 0 -55 0 -55 -60 0 -60 0 0 115 0 115 120 0 120 0 0
-60z"/>
<path d="M8270 19885 l0 -235 60 0 60 0 0 -115 0 -115 115 0 115 0 0 115 0
115 -60 0 -60 0 0 175 0 175 -55 0 -55 0 0 60 0 60 -60 0 -60 0 0 -235z"/>
<path d="M14320 19945 l0 -55 -60 0 -60 0 0 -60 0 -60 175 0 175 0 0 -60 0
-60 -235 0 -235 0 0 -55 0 -55 -55 0 -55 0 0 -115 0 -115 55 0 55 0 0 -60 0
-60 175 0 175 0 0 -60 0 -60 60 0 60 0 0 120 0 120 60 0 60 0 0 115 0 115 55
0 55 0 0 115 0 115 -55 0 -55 0 0 60 0 60 -120 0 -120 0 0 55 0 55 -55 0 -55
0 0 -55z m110 -520 l0 -115 -115 0 -115 0 0 115 0 115 115 0 115 0 0 -115z"/>
<path d="M7450 19830 l0 -60 -115 0 -115 0 0 -175 0 -175 60 0 60 0 0 -115 0
-115 55 0 55 0 0 -60 0 -60 60 0 60 0 0 175 0 175 -60 0 -60 0 0 115 0 115 60
0 60 0 0 120 0 120 -60 0 -60 0 0 -60z"/>
<path d="M6410 19710 l0 -60 -60 0 -60 0 0 -115 0 -115 60 0 60 0 0 -405 0
-405 115 0 115 0 0 175 0 175 115 0 115 0 0 55 0 55 120 0 120 0 0 -55 0 -55
115 0 115 0 0 55 0 55 -60 0 -60 0 0 60 0 60 -55 0 -55 0 0 60 0 60 -60 0 -60
0 0 55 0 55 -60 0 -60 0 0 60 0 60 -55 0 -55 0 0 55 0 55 -120 0 -120 0 0 60
0 60 -55 0 -55 0 0 -60z m230 -345 l0 -55 60 0 60 0 0 -60 0 -60 -120 0 -120
0 0 115 0 115 60 0 60 0 0 -55z"/>
<path d="M15020 19595 l0 -55 -60 0 -60 0 0 -60 0 -60 -60 0 -60 0 0 -230 0
-230 60 0 60 0 0 -60 0 -60 115 0 115 0 0 -60 0 -60 115 0 115 0 0 120 0 120
60 0 60 0 0 115 0 115 60 0 60 0 0 115 0 115 55 0 55 0 0 115 0 115 -115 0
-115 0 0 -115 0 -115 -60 0 -60 0 0 60 0 60 -55 0 -55 0 0 55 0 55 -115 0
-115 0 0 -55z m230 -230 l0 -55 55 0 55 0 0 -60 0 -60 -55 0 -55 0 0 -115 0
-115 -115 0 -115 0 0 230 0 230 115 0 115 0 0 -55z"/>
<path d="M15830 19130 l0 -60 -115 0 -115 0 0 -290 0 -290 55 0 55 0 0 -55 0
-55 175 0 175 0 0 55 0 55 -55 0 -55 0 0 60 0 60 170 0 170 0 0 175 0 175 -55
0 -55 0 0 55 0 55 -60 0 -60 0 0 60 0 60 -115 0 -115 0 0 -60z m230 -230 l0
-60 -115 0 -115 0 0 60 0 60 115 0 115 0 0 -60z m-110 -235 l0 -55 -120 0
-120 0 0 55 0 55 120 0 120 0 0 -55z"/>
<path d="M5480 18780 l0 -60 -120 0 -120 0 0 -170 0 -170 60 0 60 0 0 -60 0
-60 60 0 60 0 0 -115 0 -115 175 0 175 0 0 55 0 55 55 0 55 0 0 60 0 60 60 0
60 0 0 115 0 115 -60 0 -60 0 0 60 0 60 -175 0 -175 0 0 -60 0 -60 -115 0
-115 0 0 60 0 60 60 0 60 0 0 55 0 55 115 0 115 0 0 60 0 60 -115 0 -115 0 0
-60z m350 -460 l0 -60 -175 0 -175 0 0 60 0 60 175 0 175 0 0 -60z"/>
<path d="M16410 18605 l0 -115 -60 0 -60 0 0 -55 0 -55 -55 0 -55 0 0 -120 0
-120 115 0 115 0 0 120 0 120 60 0 60 0 0 55 0 55 115 0 115 0 0 -55 0 -55 60
0 60 0 0 -235 0 -235 -60 0 -60 0 0 60 0 60 -60 0 -60 0 0 -175 0 -175 120 0
120 0 0 -60 0 -60 175 0 175 0 0 175 0 175 -60 0 -60 0 0 115 0 115 60 0 60 0
0 -55 0 -55 115 0 115 0 0 55 0 55 -60 0 -60 0 0 60 0 60 -55 0 -55 0 0 60 0
60 -175 0 -175 0 0 115 0 115 -120 0 -120 0 0 55 0 55 -115 0 -115 0 0 -115z
m580 -810 l0 -115 -55 0 -55 0 0 115 0 115 55 0 55 0 0 -115z"/>
<path d="M13500 18550 l0 -60 120 0 120 0 0 60 0 60 -120 0 -120 0 0 -60z"/>
<path d="M13850 18435 l0 -55 115 0 115 0 0 -60 0 -60 120 0 120 0 0 -60 0
-60 115 0 115 0 0 -55 0 -55 115 0 115 0 0 55 0 55 -115 0 -115 0 0 60 0 60
-115 0 -115 0 0 60 0 60 -120 0 -120 0 0 55 0 55 -115 0 -115 0 0 -55z"/>
<path d="M4900 18320 l0 -60 -120 0 -120 0 0 -290 0 -290 -115 0 -115 0 0 55
0 55 -60 0 -60 0 0 60 0 60 -55 0 -55 0 0 60 0 60 -60 0 -60 0 0 -120 0 -120
60 0 60 0 0 -55 0 -55 -60 0 -60 0 0 -60 0 -60 -60 0 -60 0 0 -175 0 -175 60
0 60 0 0 -55 0 -55 60 0 60 0 0 -60 0 -60 230 0 230 0 0 115 0 115 60 0 60 0
0 60 0 60 60 0 60 0 0 55 0 55 -60 0 -60 0 0 60 0 60 -60 0 -60 0 0 60 0 60
120 0 120 0 0 -60 0 -60 170 0 170 0 0 60 0 60 60 0 60 0 0 175 0 175 -60 0
-60 0 0 115 0 115 -115 0 -115 0 0 60 0 60 -55 0 -55 0 0 -60z m110 -235 l0
-55 -55 0 -55 0 0 -60 0 -60 -60 0 -60 0 0 115 0 115 115 0 115 0 0 -55z m230
-175 l0 -120 -115 0 -115 0 0 60 0 60 60 0 60 0 0 60 0 60 55 0 55 0 0 -120z
m-810 -410 l0 -60 60 0 60 0 0 -115 0 -115 -175 0 -175 0 0 175 0 175 115 0
115 0 0 -60z"/>
<path d="M13620 18200 l0 -60 60 0 60 0 0 60 0 60 -60 0 -60 0 0 -60z"/>
<path d="M14900 17970 l0 -60 60 0 60 0 0 -60 0 -60 115 0 115 0 0 -55 0 -55
55 0 55 0 0 55 0 55 -55 0 -55 0 0 60 0 60 -115 0 -115 0 0 60 0 60 -60 0 -60
0 0 -60z"/>
<path d="M14430 17850 l0 -60 60 0 60 0 0 60 0 60 -60 0 -60 0 0 -60z"/>
<path d="M14670 17735 l0 -55 55 0 55 0 0 55 0 55 -55 0 -55 0 0 -55z"/>
<path d="M15480 17620 l0 -60 60 0 60 0 0 -60 0 -60 55 0 55 0 0 -55 0 -55
120 0 120 0 0 -60 0 -60 55 0 55 0 0 -55 0 -55 60 0 60 0 0 -60 0 -60 55 0 55
0 0 -60 0 -60 60 0 60 0 0 -55 0 -55 60 0 60 0 0 -60 0 -60 55 0 55 0 0 -60 0
-60 60 0 60 0 0 -55 0 -55 60 0 60 0 0 -60 0 -60 55 0 55 0 0 -55 0 -55 60 0
60 0 0 -60 0 -60 60 0 60 0 0 -60 0 -60 55 0 55 0 0 -115 0 -115 60 0 60 0 0
-60 0 -60 55 0 55 0 0 -55 0 -55 60 0 60 0 0 55 0 55 -60 0 -60 0 0 60 0 60
-55 0 -55 0 0 115 0 115 -60 0 -60 0 0 60 0 60 -55 0 -55 0 0 60 0 60 -60 0
-60 0 0 55 0 55 -60 0 -60 0 0 60 0 60 -55 0 -55 0 0 115 0 115 -120 0 -120 0
0 60 0 60 -55 0 -55 0 0 55 0 55 -60 0 -60 0 0 60 0 60 -60 0 -60 0 0 60 0 60
-55 0 -55 0 0 55 0 55 -60 0 -60 0 0 60 0 60 -55 0 -55 0 0 55 0 55 -120 0
-120 0 0 60 0 60 -55 0 -55 0 0 60 0 60 -60 0 -60 0 0 -60z"/>
<path d="M15250 17385 l0 -55 55 0 55 0 0 55 0 55 -55 0 -55 0 0 -55z"/>
<path d="M17690 17385 l0 -55 -60 0 -60 0 0 -235 0 -235 60 0 60 0 0 -55 0
-55 60 0 60 0 0 -60 0 -60 115 0 115 0 0 60 0 60 60 0 60 0 0 55 0 55 55 0 55
0 0 60 0 60 60 0 60 0 0 60 0 60 55 0 55 0 0 55 0 55 60 0 60 0 0 60 0 60
-115 0 -115 0 0 -60 0 -60 -60 0 -60 0 0 60 0 60 -55 0 -55 0 0 55 0 55 -235
0 -235 0 0 -55z m350 -115 l0 -60 60 0 60 0 0 -115 0 -115 -120 0 -120 0 0
-60 0 -60 -55 0 -55 0 0 60 0 60 -60 0 -60 0 0 60 0 60 60 0 60 0 0 55 0 55
55 0 55 0 0 60 0 60 60 0 60 0 0 -60z"/>
<path d="M15600 17155 l0 -55 55 0 55 0 0 -60 0 -60 60 0 60 0 0 60 0 60 -60
0 -60 0 0 55 0 55 -55 0 -55 0 0 -55z"/>
<path d="M5940 17040 l0 -60 -55 0 -55 0 0 -60 0 -60 -60 0 -60 0 0 -55 0 -55
-60 0 -60 0 0 -60 0 -60 -55 0 -55 0 0 -60 0 -60 -60 0 -60 0 0 -55 0 -55 -60
0 -60 0 0 -60 0 -60 -55 0 -55 0 0 -55 0 -55 -60 0 -60 0 0 -120 0 -120 -55 0
-55 0 0 -55 0 -55 -60 0 -60 0 0 -60 0 -60 -60 0 -60 0 0 -115 0 -115 -55 0
-55 0 0 -60 0 -60 -60 0 -60 0 0 -115 0 -115 -60 0 -60 0 0 -115 0 -115 -55 0
-55 0 0 -120 0 -120 -60 0 -60 0 0 -55 0 -55 -60 0 -60 0 0 -175 0 -175 -55 0
-55 0 0 -115 0 -115 -60 0 -60 0 0 -175 0 -175 -55 0 -55 0 0 -235 0 -235 -60
0 -60 0 0 -230 0 -230 -60 0 -60 0 0 -525 0 -525 -55 0 -55 0 0 -465 0 -465
55 0 55 0 0 -465 0 -465 60 0 60 0 0 -235 0 -235 60 0 60 0 0 -230 0 -230 55
0 55 0 0 -175 0 -175 60 0 60 0 0 -175 0 -175 55 0 55 0 0 -115 0 -115 60 0
60 0 0 -120 0 -120 60 0 60 0 0 -115 0 -115 55 0 55 0 0 -115 0 -115 60 0 60
0 0 -115 0 -115 60 0 60 0 0 -60 0 -60 55 0 55 0 0 -60 0 -60 60 0 60 0 0
-115 0 -115 60 0 60 0 0 -60 0 -60 55 0 55 0 0 -55 0 -55 60 0 60 0 0 -60 0
-60 55 0 55 0 0 -55 0 -55 60 0 60 0 0 -60 0 -60 60 0 60 0 0 -60 0 -60 55 0
55 0 0 -55 0 -55 60 0 60 0 0 -60 0 -60 60 0 60 0 0 -60 0 -60 55 0 55 0 0
-55 0 -55 60 0 60 0 0 -60 0 -60 55 0 55 0 0 -60 0 -60 60 0 60 0 0 -55 0 -55
60 0 60 0 0 -60 0 -60 55 0 55 0 0 -55 0 -55 120 0 120 0 0 -60 0 -60 55 0 55
0 0 -60 0 -60 120 0 120 0 0 -55 0 -55 55 0 55 0 0 -60 0 -60 115 0 115 0 0
-60 0 -60 120 0 120 0 0 -55 0 -55 55 0 55 0 0 -60 0 -60 120 0 120 0 0 -55 0
-55 55 0 55 0 0 -60 0 -60 -55 0 -55 0 0 -60 0 -60 -120 0 -120 0 0 -55 0 -55
-55 0 -55 0 0 -60 0 -60 115 0 115 0 0 -60 0 -60 115 0 115 0 0 -55 0 -55 175
0 175 0 0 -60 0 -60 235 0 235 0 0 -60 0 -60 175 0 175 0 0 -55 0 -55 290 0
290 0 0 -60 0 -60 1280 0 1280 0 0 60 0 60 290 0 290 0 0 55 0 55 175 0 175 0
0 60 0 60 230 0 230 0 0 60 0 60 175 0 175 0 0 55 0 55 115 0 115 0 0 60 0 60
175 0 175 0 0 60 0 60 120 0 120 0 0 55 0 55 115 0 115 0 0 60 0 60 115 0 115
0 0 60 0 60 60 0 60 0 0 55 0 55 115 0 115 0 0 60 0 60 60 0 60 0 0 55 0 55
115 0 115 0 0 60 0 60 55 0 55 0 0 60 0 60 60 0 60 0 0 55 0 55 60 0 60 0 0
60 0 60 115 0 115 0 0 60 0 60 60 0 60 0 0 55 0 55 55 0 55 0 0 60 0 60 60 0
60 0 0 55 0 55 60 0 60 0 0 60 0 60 55 0 55 0 0 60 0 60 60 0 60 0 0 55 0 55
55 0 55 0 0 120 0 120 60 0 60 0 0 55 0 55 60 0 60 0 0 60 0 60 55 0 55 0 0
115 0 115 60 0 60 0 0 60 0 60 60 0 60 0 0 115 0 115 55 0 55 0 0 115 0 115
60 0 60 0 0 60 0 60 55 0 55 0 0 115 0 115 60 0 60 0 0 115 0 115 60 0 60 0 0
120 0 120 55 0 55 0 0 175 0 175 60 0 60 0 0 175 0 175 60 0 60 0 0 170 0 170
55 0 55 0 0 175 0 175 60 0 60 0 0 410 0 410 60 0 60 0 0 290 0 290 -60 0 -60
0 0 -60 0 -60 -60 0 -60 0 0 -55 0 -55 -115 0 -115 0 0 1160 0 1160 -60 0 -60
0 0 235 0 235 -55 0 -55 0 0 -235 0 -235 55 0 55 0 0 -1395 0 -1395 -55 0 -55
0 0 -350 0 -350 -60 0 -60 0 0 -230 0 -230 -60 0 -60 0 0 -175 0 -175 -55 0
-55 0 0 -115 0 -115 -60 0 -60 0 0 -120 0 -120 -55 0 -55 0 0 -115 0 -115 -60
0 -60 0 0 -115 0 -115 -60 0 -60 0 0 -115 0 -115 -55 0 -55 0 0 -60 0 -60 -60
0 -60 0 0 -115 0 -115 -60 0 -60 0 0 -60 0 -60 -55 0 -55 0 0 -60 0 -60 -60 0
-60 0 0 -115 0 -115 -55 0 -55 0 0 -55 0 -55 -60 0 -60 0 0 -60 0 -60 -60 0
-60 0 0 -60 0 -60 -55 0 -55 0 0 -55 0 -55 -60 0 -60 0 0 -60 0 -60 -60 0 -60
0 0 -60 0 -60 -55 0 -55 0 0 -55 0 -55 -60 0 -60 0 0 -60 0 -60 -60 0 -60 0 0
-60 0 -60 -55 0 -55 0 0 -55 0 -55 -115 0 -115 0 0 -60 0 -60 -60 0 -60 0 0
-55 0 -55 -60 0 -60 0 0 -60 0 -60 -115 0 -115 0 0 -60 0 -60 -115 0 -115 0 0
-55 0 -55 -175 0 -175 0 0 -60 0 -60 -175 0 -175 0 0 -60 0 -60 -115 0 -115 0
0 -55 0 -55 -120 0 -120 0 0 -60 0 -60 -170 0 -170 0 0 -55 0 -55 -235 0 -235
0 0 -60 0 -60 -230 0 -230 0 0 -60 0 -60 -350 0 -350 0 0 -55 0 -55 -990 0
-990 0 0 55 0 55 -290 0 -290 0 0 60 0 60 -175 0 -175 0 0 60 0 60 -60 0 -60
0 0 -60 0 -60 -55 0 -55 0 0 60 0 60 -175 0 -175 0 0 55 0 55 -115 0 -115 0 0
60 0 60 -60 0 -60 0 0 55 0 55 -115 0 -115 0 0 60 0 60 -175 0 -175 0 0 60 0
60 -120 0 -120 0 0 55 0 55 -55 0 -55 0 0 60 0 60 -115 0 -115 0 0 60 0 60
-60 0 -60 0 0 55 0 55 -115 0 -115 0 0 60 0 60 -60 0 -60 0 0 55 0 55 -60 0
-60 0 0 60 0 60 -115 0 -115 0 0 60 0 60 -60 0 -60 0 0 55 0 55 -55 0 -55 0 0
60 0 60 -60 0 -60 0 0 60 0 60 -55 0 -55 0 0 55 0 55 -60 0 -60 0 0 60 0 60
-60 0 -60 0 0 60 0 60 -55 0 -55 0 0 115 0 115 -60 0 -60 0 0 55 0 55 -60 0
-60 0 0 60 0 60 -55 0 -55 0 0 60 0 60 -60 0 -60 0 0 115 0 115 -55 0 -55 0 0
60 0 60 -60 0 -60 0 0 115 0 115 -60 0 -60 0 0 115 0 115 -55 0 -55 0 0 115 0
115 -60 0 -60 0 0 120 0 120 -60 0 -60 0 0 115 0 115 -55 0 -55 0 0 115 0 115
-60 0 -60 0 0 175 0 175 -60 0 -60 0 0 -60 0 -60 -55 0 -55 0 0 120 0 120 55
0 55 0 0 175 0 175 -55 0 -55 0 0 230 0 230 -115 0 -115 0 0 115 0 115 55 0
55 0 0 235 0 235 -55 0 -55 0 0 -115 0 -115 -60 0 -60 0 0 1045 0 1045 60 0
60 0 0 350 0 350 55 0 55 0 0 230 0 230 60 0 60 0 0 175 0 175 55 0 55 0 0
120 0 120 60 0 60 0 0 170 0 170 60 0 60 0 0 120 0 120 55 0 55 0 0 115 0 115
60 0 60 0 0 115 0 115 60 0 60 0 0 60 0 60 55 0 55 0 0 115 0 115 60 0 60 0 0
60 0 60 60 0 60 0 0 115 0 115 55 0 55 0 0 60 0 60 60 0 60 0 0 55 0 55 55 0
55 0 0 120 0 120 60 0 60 0 0 55 0 55 60 0 60 0 0 60 0 60 55 0 55 0 0 55 0
55 60 0 60 0 0 60 0 60 60 0 60 0 0 60 0 60 55 0 55 0 0 55 0 55 60 0 60 0 0
60 0 60 55 0 55 0 0 60 0 60 -115 0 -115 0 0 -60z m-2090 -7970 l0 -120 -60 0
-60 0 0 120 0 120 60 0 60 0 0 -120z"/>
<path d="M3270 16575 l0 -175 -120 0 -120 0 0 -60 0 -60 60 0 60 0 0 -55 0
-55 60 0 60 0 0 -60 0 -60 115 0 115 0 0 -60 0 -60 115 0 115 0 0 60 0 60 -55
0 -55 0 0 60 0 60 -60 0 -60 0 0 55 0 55 -60 0 -60 0 0 115 0 115 120 0 120 0
0 -55 0 -55 115 0 115 0 0 -60 0 -60 55 0 55 0 0 115 0 115 -55 0 -55 0 0 60
0 60 -115 0 -115 0 0 60 0 60 -175 0 -175 0 0 -175z"/>
<path d="M18270 16690 l0 -60 -55 0 -55 0 0 -60 0 -60 -60 0 -60 0 0 -115 0
-115 60 0 60 0 0 -55 0 -55 55 0 55 0 0 -60 0 -60 115 0 115 0 0 60 0 60 120
0 120 0 0 55 0 55 55 0 55 0 0 175 0 175 -55 0 -55 0 0 60 0 60 -235 0 -235 0
0 -60z m350 -120 l0 -60 60 0 60 0 0 -55 0 -55 -120 0 -120 0 0 -115 0 -115
-55 0 -55 0 0 55 0 55 -60 0 -60 0 0 115 0 115 60 0 60 0 0 -55 0 -55 55 0 55
0 0 115 0 115 60 0 60 0 0 -60z"/>
<path d="M16410 16455 l0 -55 60 0 60 0 0 55 0 55 -60 0 -60 0 0 -55z"/>
<path d="M10360 16340 l0 -60 120 0 120 0 0 60 0 60 -120 0 -120 0 0 -60z"/>
<path d="M11870 16340 l0 -60 175 0 175 0 0 60 0 60 -175 0 -175 0 0 -60z"/>
<path d="M11180 16110 l0 -60 -350 0 -350 0 0 -115 0 -115 -60 0 -60 0 0 -235
0 -235 -55 0 -55 0 0 -115 0 -115 -60 0 -60 0 0 -60 0 -60 -60 0 -60 0 0 -55
0 -55 -55 0 -55 0 0 -60 0 -60 -120 0 -120 0 0 -115 0 -115 -55 0 -55 0 0 -60
0 -60 -115 0 -115 0 0 -60 0 -60 -60 0 -60 0 0 -55 0 -55 -60 0 -60 0 0 -115
0 -115 -55 0 -55 0 0 -120 0 -120 -60 0 -60 0 0 -465 0 -465 -60 0 -60 0 0
-115 0 -115 -55 0 -55 0 0 -115 0 -115 -60 0 -60 0 0 -295 0 -295 60 0 60 0 0
175 0 175 55 0 55 0 0 60 0 60 60 0 60 0 0 -235 0 -235 60 0 60 0 0 -520 0
-520 55 0 55 0 0 -115 0 -115 60 0 60 0 0 -60 0 -60 60 0 60 0 0 -60 0 -60
115 0 115 0 0 -115 0 -115 55 0 55 0 0 -115 0 -115 -115 0 -115 0 0 55 0 55
-115 0 -115 0 0 60 0 60 -60 0 -60 0 0 60 0 60 -55 0 -55 0 0 55 0 55 -60 0
-60 0 0 60 0 60 -60 0 -60 0 0 60 0 60 -55 0 -55 0 0 55 0 55 -60 0 -60 0 0
60 0 60 -55 0 -55 0 0 55 0 55 -60 0 -60 0 0 60 0 60 -60 0 -60 0 0 60 0 60
-55 0 -55 0 0 115 0 115 -60 0 -60 0 0 60 0 60 -60 0 -60 0 0 170 0 170 -55 0
-55 0 0 175 0 175 -60 0 -60 0 0 175 0 175 -60 0 -60 0 0 700 0 700 -55 0 -55
0 0 60 0 60 -115 0 -115 0 0 -235 0 -235 -60 0 -60 0 0 -700 0 -700 60 0 60 0
0 -175 0 -175 55 0 55 0 0 -230 0 -230 60 0 60 0 0 -115 0 -115 55 0 55 0 0
-120 0 -120 60 0 60 0 0 -115 0 -115 60 0 60 0 0 -115 0 -115 55 0 55 0 0 -60
0 -60 60 0 60 0 0 -115 0 -115 60 0 60 0 0 -115 0 -115 55 0 55 0 0 -60 0 -60
60 0 60 0 0 -115 0 -115 60 0 60 0 0 -60 0 -60 55 0 55 0 0 -55 0 -55 60 0 60
0 0 -120 0 -120 55 0 55 0 0 -55 0 -55 60 0 60 0 0 -60 0 -60 60 0 60 0 0
-115 0 -115 55 0 55 0 0 -115 0 -115 60 0 60 0 0 -120 0 -120 60 0 60 0 0
-230 0 -230 55 0 55 0 0 -175 0 -175 60 0 60 0 0 -60 0 -60 55 0 55 0 0 -175
0 -175 60 0 60 0 0 -115 0 -115 60 0 60 0 0 -60 0 -60 55 0 55 0 0 -115 0
-115 60 0 60 0 0 -55 0 -55 60 0 60 0 0 -60 0 -60 55 0 55 0 0 -60 0 -60 60 0
60 0 0 350 0 350 60 0 60 0 0 290 0 290 55 0 55 0 0 115 0 115 60 0 60 0 0 60
0 60 55 0 55 0 0 115 0 115 60 0 60 0 0 175 0 175 60 0 60 0 0 350 0 350 -60
0 -60 0 0 175 0 175 -60 0 -60 0 0 115 0 115 -55 0 -55 0 0 115 0 115 -60 0
-60 0 0 120 0 120 -55 0 -55 0 0 55 0 55 -60 0 -60 0 0 60 0 60 -60 0 -60 0 0
60 0 60 -55 0 -55 0 0 55 0 55 -60 0 -60 0 0 60 0 60 -115 0 -115 0 0 115 0
115 -120 0 -120 0 0 175 0 175 -115 0 -115 0 0 60 0 60 -55 0 -55 0 0 55 0 55
115 0 115 0 0 60 0 60 175 0 175 0 0 -60 0 -60 55 0 55 0 0 60 0 60 -55 0 -55
0 0 115 0 115 -60 0 -60 0 0 115 0 115 235 0 235 0 0 60 0 60 -120 0 -120 0 0
60 0 60 -115 0 -115 0 0 175 0 175 -60 0 -60 0 0 55 0 55 60 0 60 0 0 290 0
290 60 0 60 0 0 175 0 175 55 0 55 0 0 120 0 120 60 0 60 0 0 -60 0 -60 60 0
60 0 0 235 0 235 -175 0 -175 0 0 55 0 55 -60 0 -60 0 0 60 0 60 60 0 60 0 0
55 0 55 -60 0 -60 0 0 60 0 60 115 0 115 0 0 60 0 60 175 0 175 0 0 55 0 55
290 0 290 0 0 175 0 175 -55 0 -55 0 0 60 0 60 -60 0 -60 0 0 55 0 55 60 0 60
0 0 60 0 60 -60 0 -60 0 0 60 0 60 60 0 60 0 0 55 0 55 -60 0 -60 0 0 60 0 60
60 0 60 0 0 115 0 115 115 0 115 0 0 -115 0 -115 60 0 60 0 0 -115 0 -115 -60
0 -60 0 0 -120 0 -120 60 0 60 0 0 -55 0 -55 175 0 175 0 0 55 0 55 55 0 55 0
0 -55 0 -55 60 0 60 0 0 55 0 55 55 0 55 0 0 -115 0 -115 -55 0 -55 0 0 -55 0
-55 -350 0 -350 0 0 -60 0 -60 60 0 60 0 0 -60 0 -60 -60 0 -60 0 0 -115 0
-115 290 0 290 0 0 60 0 60 60 0 60 0 0 55 0 55 230 0 230 0 0 -55 0 -55 60 0
60 0 0 -60 0 -60 235 0 235 0 0 -60 0 -60 -60 0 -60 0 0 -55 0 -55 60 0 60 0
0 -60 0 -60 -60 0 -60 0 0 -55 0 -55 -115 0 -115 0 0 -60 0 -60 -60 0 -60 0 0
-60 0 -60 -175 0 -175 0 0 -55 0 -55 -60 0 -60 0 0 55 0 55 -580 0 -580 0 0
-230 0 -230 -55 0 -55 0 0 -120 0 -120 55 0 55 0 0 -230 0 -230 -55 0 -55 0 0
-115 0 -115 55 0 55 0 0 -120 0 -120 -55 0 -55 0 0 -175 0 -175 -60 0 -60 0 0
-55 0 -55 115 0 115 0 0 -60 0 -60 60 0 60 0 0 -55 0 -55 55 0 55 0 0 -120 0
-120 295 0 295 0 0 -55 0 -55 55 0 55 0 0 55 0 55 115 0 115 0 0 60 0 60 60 0
60 0 0 60 0 60 -175 0 -175 0 0 55 0 55 60 0 60 0 0 60 0 60 175 0 175 0 0 55
0 55 115 0 115 0 0 60 0 60 -175 0 -175 0 0 640 0 640 -60 0 -60 0 0 175 0
175 60 0 60 0 0 -60 0 -60 60 0 60 0 0 60 0 60 55 0 55 0 0 60 0 60 60 0 60 0
0 -120 0 -120 115 0 115 0 0 -55 0 -55 60 0 60 0 0 -120 0 -120 -60 0 -60 0 0
-55 0 -55 60 0 60 0 0 -175 0 -175 60 0 60 0 0 -115 0 -115 -60 0 -60 0 0
-235 0 -235 -115 0 -115 0 0 -60 0 -60 465 0 465 0 0 -55 0 -55 -120 0 -120 0
0 -60 0 -60 -115 0 -115 0 0 -55 0 -55 235 0 235 0 0 55 0 55 55 0 55 0 0 60
0 60 60 0 60 0 0 55 0 55 -115 0 -115 0 0 60 0 60 115 0 115 0 0 60 0 60 60 0
60 0 0 -60 0 -60 55 0 55 0 0 -290 0 -290 60 0 60 0 0 405 0 405 -60 0 -60 0
0 235 0 235 -55 0 -55 0 0 350 0 350 -60 0 -60 0 0 290 0 290 -60 0 -60 0 0
60 0 60 -55 0 -55 0 0 115 0 115 -60 0 -60 0 0 55 0 55 -60 0 -60 0 0 60 0 60
-55 0 -55 0 0 60 0 60 -60 0 -60 0 0 55 0 55 -55 0 -55 0 0 60 0 60 -60 0 -60
0 0 60 0 60 -60 0 -60 0 0 55 0 55 -55 0 -55 0 0 60 0 60 -60 0 -60 0 0 115 0
115 -60 0 -60 0 0 175 0 175 -55 0 -55 0 0 175 0 175 -290 0 -290 0 0 60 0 60
-175 0 -175 0 0 -60z m580 -470 l0 -290 -115 0 -115 0 0 290 0 290 115 0 115
0 0 -290z m700 -810 l0 -60 55 0 55 0 0 -60 0 -60 -175 0 -175 0 0 120 0 120
120 0 120 0 0 -60z m-2100 -120 l0 -60 -175 0 -175 0 0 60 0 60 175 0 175 0 0
-60z m1170 0 l0 -60 -60 0 -60 0 0 60 0 60 60 0 60 0 0 -60z m1390 -465 l0
-55 -55 0 -55 0 0 55 0 55 55 0 55 0 0 -55z m-350 -465 l0 -60 -55 0 -55 0 0
60 0 60 55 0 55 0 0 -60z m-1630 -230 l0 -60 -55 0 -55 0 0 60 0 60 55 0 55 0
0 -60z m1630 0 l0 -60 -55 0 -55 0 0 60 0 60 55 0 55 0 0 -60z m-2790 -235 l0
-55 -60 0 -60 0 0 55 0 55 60 0 60 0 0 -55z m1160 0 l0 -55 -55 0 -55 0 0 55
0 55 55 0 55 0 0 -55z m-1740 -2095 l0 -60 -60 0 -60 0 0 60 0 60 60 0 60 0 0
-60z"/>
<path d="M16760 16110 l0 -60 60 0 60 0 0 60 0 60 -60 0 -60 0 0 -60z"/>
<path d="M2800 15875 l0 -55 -55 0 -55 0 0 -235 0 -235 55 0 55 0 0 -60 0 -60
235 0 235 0 0 60 0 60 55 0 55 0 0 60 0 60 60 0 60 0 0 115 0 115 -60 0 -60 0
0 115 0 115 -290 0 -290 0 0 -55z m350 -115 l0 -60 60 0 60 0 0 -115 0 -115
-175 0 -175 0 0 55 0 55 -60 0 -60 0 0 60 0 60 60 0 60 0 0 60 0 60 115 0 115
0 0 -60z"/>
<path d="M15020 15760 l0 -60 55 0 55 0 0 -115 0 -115 60 0 60 0 0 -60 0 -60
55 0 55 0 0 -60 0 -60 120 0 120 0 0 120 0 120 -60 0 -60 0 0 115 0 115 -60 0
-60 0 0 60 0 60 -170 0 -170 0 0 -60z"/>
<path d="M19090 15760 l0 -60 -60 0 -60 0 0 -60 0 -60 -60 0 -60 0 0 -290 0
-290 60 0 60 0 0 -55 0 -55 175 0 175 0 0 115 0 115 -175 0 -175 0 0 115 0
115 60 0 60 0 0 60 0 60 55 0 55 0 0 55 0 55 235 0 235 0 0 -230 0 -230 55 0
55 0 0 55 0 55 60 0 60 0 0 120 0 120 -60 0 -60 0 0 115 0 115 -55 0 -55 0 0
60 0 60 -290 0 -290 0 0 -60z"/>
<path d="M17110 15640 l0 -60 60 0 60 0 0 60 0 60 -60 0 -60 0 0 -60z"/>
<path d="M37055 15349 c-1266 -62 -2257 -472 -2922 -1208 -599 -663 -932
-1515 -1040 -2661 -22 -236 -25 -1092 -5 -1320 35 -388 84 -690 162 -1005 84
-341 176 -597 320 -890 522 -1066 1454 -1741 2720 -1969 368 -66 665 -90 1115
-89 697 0 1235 79 1770 258 1116 373 1893 1177 2269 2345 257 796 339 1855
225 2875 -101 900 -374 1655 -806 2227 -526 695 -1267 1138 -2234 1332 -467
94 -1028 132 -1574 105z m622 -1974 c865 -113 1347 -731 1477 -1895 48 -424
48 -978 1 -1395 -145 -1278 -712 -1885 -1760 -1885 -313 0 -548 48 -784 161
-441 210 -734 617 -891 1240 -171 678 -167 1730 9 2409 125 480 347 848 649
1075 203 152 492 262 772 294 128 14 400 12 527 -4z"/>
<path d="M2100 15290 l0 -60 120 0 120 0 0 60 0 60 -120 0 -120 0 0 -60z"/>
<path d="M17690 15290 l0 -60 60 0 60 0 0 -115 0 -115 55 0 55 0 0 -55 0 -55
60 0 60 0 0 55 0 55 -60 0 -60 0 0 115 0 115 -55 0 -55 0 0 60 0 60 -60 0 -60
0 0 -60z"/>
<path d="M28965 15339 c-663 -36 -1264 -190 -1795 -460 -372 -189 -657 -395
-945 -684 -730 -729 -1149 -1747 -1235 -2995 -13 -189 -13 -751 0 -955 74
-1152 372 -2028 926 -2722 106 -132 354 -379 489 -487 553 -442 1219 -702
2044 -796 604 -69 1331 -41 1971 76 341 62 793 194 1097 320 l143 59 0 1017 0
1016 -112 -45 c-192 -77 -524 -198 -723 -263 -385 -125 -612 -180 -915 -220
-198 -27 -587 -37 -755 -21 -987 96 -1538 733 -1679 1943 -49 418 -41 964 19
1371 128 854 514 1484 1066 1740 250 117 456 153 812 144 404 -10 682 -61
1087 -199 219 -75 444 -163 668 -262 95 -42 176 -76 180 -76 7 1 725 1838 730
1870 2 13 -24 29 -121 73 -927 418 -1949 610 -2952 556z"/>
<path d="M86005 15339 c-663 -36 -1264 -190 -1795 -460 -372 -189 -657 -395
-945 -684 -730 -729 -1149 -1747 -1235 -2995 -13 -189 -13 -751 0 -955 74
-1152 372 -2028 926 -2722 106 -132 354 -379 489 -487 553 -442 1219 -702
2044 -796 604 -69 1331 -41 1971 76 341 62 793 194 1097 320 l143 59 0 1017 0
1016 -112 -45 c-192 -77 -524 -198 -723 -263 -385 -125 -612 -180 -915 -220
-198 -27 -587 -37 -755 -21 -987 96 -1538 733 -1679 1943 -49 418 -41 964 19
1371 128 854 514 1484 1066 1740 250 117 456 153 812 144 404 -10 682 -61
1087 -199 219 -75 444 -163 668 -262 95 -42 176 -76 180 -76 7 1 725 1838 730
1870 2 13 -24 29 -121 73 -927 418 -1949 610 -2952 556z"/>
<path d="M66534 10792 l-1451 -4467 1315 -3 c724 -1 1318 0 1320 3 4 4 412
1504 446 1640 l6 25 1449 0 1448 0 60 -227 c33 -126 131 -501 219 -835 l159
-608 1313 0 c721 0 1312 2 1312 4 0 1 -661 2012 -1468 4467 l-1469 4464 -1604
2 -1604 3 -1451 -4468z m3151 2628 c67 -305 298 -1241 405 -1645 34 -126 153
-581 266 -1010 112 -429 207 -786 209 -792 3 -10 -190 -13 -946 -13 -805 0
-950 2 -946 14 23 60 527 2015 631 2451 99 409 274 1211 297 1353 2 11 14 -42
84 -358z"/>
<path d="M2450 15115 l0 -115 120 0 120 0 0 -55 0 -55 115 0 115 0 0 -60 0
-60 55 0 55 0 0 60 0 60 60 0 60 0 0 55 0 55 -115 0 -115 0 0 60 0 60 -115 0
-115 0 0 55 0 55 -120 0 -120 0 0 -115z"/>
<path d="M43320 10770 l0 -4450 1185 0 1185 0 0 1670 0 1670 1330 0 1330 0 0
965 0 965 -1330 0 -1330 0 0 850 0 850 1445 0 1445 0 0 965 0 965 -2630 0
-2630 0 0 -4450z"/>
<path d="M50040 10770 l0 -4450 2640 0 2640 0 0 980 0 980 -1440 0 -1440 0 0
840 0 840 1335 0 1335 0 0 965 0 965 -1335 0 -1335 0 0 700 0 700 1440 0 1440
0 0 965 0 965 -2640 0 -2640 0 0 -4450z"/>
<path d="M56890 10769 l0 -4450 1648 4 c1711 4 1732 5 2078 47 590 72 1106
214 1560 430 593 281 1119 724 1486 1250 367 527 613 1188 717 1930 86 606 88
1315 5 1880 -161 1104 -631 1939 -1421 2527 -593 441 -1358 708 -2283 798
-316 30 -601 35 -2187 35 l-1603 0 0 -4451z m3386 2500 c333 -32 640 -134 875
-291 134 -88 315 -272 407 -411 197 -300 309 -647 369 -1144 26 -213 26 -910
0 -1128 -51 -424 -130 -727 -261 -1000 -112 -232 -207 -367 -369 -522 -248
-237 -582 -387 -1012 -455 -112 -18 -190 -21 -562 -25 l-433 -5 0 2496 0 2496
438 0 c241 0 488 -5 548 -11z"/>
<path d="M75090 10770 l0 -4450 2915 0 2915 0 0 970 0 970 -1715 0 -1715 0 0
3480 0 3480 -1200 0 -1200 0 0 -4450z"/>
<path d="M90430 10770 l0 -4450 1210 0 1210 0 0 4450 0 4450 -1210 0 -1210 0
0 -4450z"/>
<path d="M1990 14830 l0 -60 55 0 55 0 0 -60 0 -60 60 0 60 0 0 -55 0 -55 175
0 175 0 0 -60 0 -60 175 0 175 0 0 60 0 60 55 0 55 0 0 55 0 55 -230 0 -230 0
0 60 0 60 -60 0 -60 0 0 60 0 60 -230 0 -230 0 0 -60z"/>
<path d="M15250 14770 l0 -120 55 0 55 0 0 -55 0 -55 120 0 120 0 0 -60 0 -60
115 0 115 0 0 115 0 115 -60 0 -60 0 0 60 0 60 -115 0 -115 0 0 60 0 60 -115
0 -115 0 0 -120z"/>
<path d="M18040 14710 l0 -60 60 0 60 0 0 60 0 60 -60 0 -60 0 0 -60z"/>
<path d="M19440 14710 l0 -60 -60 0 -60 0 0 -55 0 -55 -60 0 -60 0 0 -120 0
-120 60 0 60 0 0 -115 0 -115 290 0 290 0 0 60 0 60 60 0 60 0 0 230 0 230 55
0 55 0 0 -115 0 -115 60 0 60 0 0 175 0 175 -115 0 -115 0 0 -60 0 -60 -60 0
-60 0 0 60 0 60 -230 0 -230 0 0 -60z m340 -290 l0 -120 -55 0 -55 0 0 -55 0
-55 -115 0 -115 0 0 175 0 175 170 0 170 0 0 -120z"/>
<path d="M17810 14595 l0 -55 55 0 55 0 0 55 0 55 -55 0 -55 0 0 -55z"/>
<path d="M18160 14480 l0 -60 55 0 55 0 0 60 0 60 -55 0 -55 0 0 -60z"/>
<path d="M2100 14360 l0 -60 -55 0 -55 0 0 -230 0 -230 55 0 55 0 0 175 0 175
60 0 60 0 0 -235 0 -235 60 0 60 0 0 -55 0 -55 115 0 115 0 0 55 0 55 60 0 60
0 0 175 0 175 55 0 55 0 0 60 0 60 -115 0 -115 0 0 55 0 55 -115 0 -115 0 0
60 0 60 -120 0 -120 0 0 -60z m470 -405 l0 -115 -115 0 -115 0 0 115 0 115
115 0 115 0 0 -115z"/>
<path d="M18270 14245 l0 -55 60 0 60 0 0 55 0 55 -60 0 -60 0 0 -55z"/>
<path d="M15130 14015 l0 -55 -55 0 -55 0 0 -120 0 -120 -60 0 -60 0 0 -755 0
-755 -60 0 -60 0 0 -175 0 -175 -55 0 -55 0 0 -115 0 -115 -60 0 -60 0 0 -175
0 -175 -60 0 -60 0 0 -60 0 -60 -55 0 -55 0 0 -55 0 -55 -60 0 -60 0 0 -120 0
-120 -60 0 -60 0 0 -55 0 -55 -55 0 -55 0 0 -60 0 -60 -60 0 -60 0 0 -55 0
-55 -55 0 -55 0 0 -60 0 -60 -60 0 -60 0 0 -60 0 -60 -60 0 -60 0 0 -55 0 -55
-55 0 -55 0 0 -60 0 -60 -60 0 -60 0 0 -60 0 -60 -115 0 -115 0 0 -55 0 -55
-175 0 -175 0 0 55 0 55 60 0 60 0 0 120 0 120 55 0 55 0 0 55 0 55 60 0 60 0
0 60 0 60 55 0 55 0 0 60 0 60 60 0 60 0 0 55 0 55 60 0 60 0 0 60 0 60 55 0
55 0 0 230 0 230 -175 0 -175 0 0 -115 0 -115 -55 0 -55 0 0 -60 0 -60 -60 0
-60 0 0 -55 0 -55 -55 0 -55 0 0 -60 0 -60 -60 0 -60 0 0 -55 0 -55 -60 0 -60
0 0 -60 0 -60 -55 0 -55 0 0 -60 0 -60 -120 0 -120 0 0 -55 0 -55 -55 0 -55 0
0 -60 0 -60 -60 0 -60 0 0 -60 0 -60 -60 0 -60 0 0 -115 0 -115 -55 0 -55 0 0
-60 0 -60 -60 0 -60 0 0 -115 0 -115 -55 0 -55 0 0 -115 0 -115 -60 0 -60 0 0
-235 0 -235 -60 0 -60 0 0 -230 0 -230 60 0 60 0 0 -235 0 -235 60 0 60 0 0
-115 0 -115 55 0 55 0 0 -60 0 -60 60 0 60 0 0 -115 0 -115 55 0 55 0 0 -175
0 -175 60 0 60 0 0 -405 0 -405 60 0 60 0 0 -60 0 -60 55 0 55 0 0 60 0 60 60
0 60 0 0 115 0 115 60 0 60 0 0 60 0 60 55 0 55 0 0 55 0 55 60 0 60 0 0 175
0 175 60 0 60 0 0 60 0 60 55 0 55 0 0 175 0 175 60 0 60 0 0 175 0 175 55 0
55 0 0 175 0 175 60 0 60 0 0 115 0 115 60 0 60 0 0 175 0 175 55 0 55 0 0 55
0 55 60 0 60 0 0 120 0 120 60 0 60 0 0 55 0 55 55 0 55 0 0 120 0 120 60 0
60 0 0 55 0 55 55 0 55 0 0 115 0 115 60 0 60 0 0 60 0 60 60 0 60 0 0 60 0
60 55 0 55 0 0 115 0 115 60 0 60 0 0 115 0 115 60 0 60 0 0 120 0 120 55 0
55 0 0 115 0 115 60 0 60 0 0 115 0 115 60 0 60 0 0 115 0 115 55 0 55 0 0
175 0 175 60 0 60 0 0 175 0 175 55 0 55 0 0 290 0 290 60 0 60 0 0 350 0 350
-60 0 -60 0 0 290 0 290 -55 0 -55 0 0 175 0 175 -60 0 -60 0 0 -55z"/>
<path d="M15600 14015 l0 -55 55 0 55 0 0 -60 0 -60 60 0 60 0 0 -60 0 -60 60
0 60 0 0 -55 0 -55 55 0 55 0 0 175 0 175 -55 0 -55 0 0 55 0 55 -175 0 -175
0 0 -55z"/>
<path d="M18390 13955 l0 -115 55 0 55 0 0 115 0 115 -55 0 -55 0 0 -115z"/>
<path d="M20020 14015 l0 -55 -60 0 -60 0 0 -60 0 -60 -175 0 -175 0 0 -60 0
-60 -55 0 -55 0 0 -55 0 -55 55 0 55 0 0 -60 0 -60 60 0 60 0 0 60 0 60 55 0
55 0 0 55 0 55 175 0 175 0 0 -55 0 -55 60 0 60 0 0 115 0 115 115 0 115 0 0
60 0 60 -55 0 -55 0 0 55 0 55 -175 0 -175 0 0 -55z"/>
<path d="M10360 13780 l0 -60 60 0 60 0 0 -55 0 -55 60 0 60 0 0 55 0 55 -60
0 -60 0 0 60 0 60 -60 0 -60 0 0 -60z"/>
<path d="M1870 13665 l0 -55 -60 0 -60 0 0 -175 0 -175 120 0 120 0 0 -60 0
-60 230 0 230 0 0 60 0 60 -55 0 -55 0 0 55 0 55 -175 0 -175 0 0 175 0 175
-60 0 -60 0 0 -55z"/>
<path d="M14670 13665 l0 -55 -60 0 -60 0 0 -640 0 -640 60 0 60 0 0 230 0
230 55 0 55 0 0 175 0 175 -55 0 -55 0 0 235 0 235 55 0 55 0 0 55 0 55 -55 0
-55 0 0 -55z"/>
<path d="M18500 13605 l0 -115 60 0 60 0 0 115 0 115 -60 0 -60 0 0 -115z"/>
<path d="M7690 13025 l0 -585 55 0 55 0 0 585 0 585 -55 0 -55 0 0 -585z"/>
<path d="M19780 13430 l0 -60 -55 0 -55 0 0 -230 0 -230 55 0 55 0 0 -60 0
-60 60 0 60 0 0 115 0 115 -60 0 -60 0 0 120 0 120 120 0 120 0 0 -235 0 -235
115 0 115 0 0 60 0 60 60 0 60 0 0 230 0 230 -60 0 -60 0 0 60 0 60 -235 0
-235 0 0 -60z m470 -290 l0 -120 -60 0 -60 0 0 120 0 120 60 0 60 0 0 -120z"/>
<path d="M8040 13315 l0 -55 55 0 55 0 0 -175 0 -175 -55 0 -55 0 0 -700 0
-700 55 0 55 0 0 -55 0 -55 60 0 60 0 0 930 0 930 -60 0 -60 0 0 55 0 55 -55
0 -55 0 0 -55z"/>
<path d="M14200 13195 l0 -175 -60 0 -60 0 0 -230 0 -230 60 0 60 0 0 -580 0
-580 60 0 60 0 0 985 0 985 -60 0 -60 0 0 -175z"/>
<path d="M18620 13255 l0 -115 60 0 60 0 0 115 0 115 -60 0 -60 0 0 -115z"/>
<path d="M1750 12965 l0 -55 -55 0 -55 0 0 -60 0 -60 -60 0 -60 0 0 60 0 60
-115 0 -115 0 0 -60 0 -60 60 0 60 0 0 -55 0 -55 115 0 115 0 0 -120 0 -120
55 0 55 0 0 -55 0 -55 235 0 235 0 0 55 0 55 60 0 60 0 0 60 0 60 55 0 55 0 0
115 0 115 -55 0 -55 0 0 60 0 60 -60 0 -60 0 0 -175 0 -175 -60 0 -60 0 0 230
0 230 -175 0 -175 0 0 -55z m240 -290 l0 -115 -120 0 -120 0 0 115 0 115 120
0 120 0 0 -115z"/>
<path d="M17690 12385 l0 -55 -60 0 -60 0 0 -350 0 -350 60 0 60 0 0 55 0 55
60 0 60 0 0 120 0 120 55 0 55 0 0 230 0 230 -115 0 -115 0 0 -55z"/>
<path d="M20130 12270 l0 -60 -115 0 -115 0 0 -350 0 -350 290 0 290 0 0 60 0
60 235 0 235 0 0 55 0 55 -175 0 -175 0 0 235 0 235 -115 0 -115 0 0 60 0 60
-120 0 -120 0 0 -60z m240 -235 l0 -55 55 0 55 0 0 -120 0 -120 -230 0 -230 0
0 120 0 120 55 0 55 0 0 55 0 55 120 0 120 0 0 -55z"/>
<path d="M1290 12095 l0 -115 115 0 115 0 0 -175 0 -175 60 0 60 0 0 -60 0
-60 55 0 55 0 0 -55 0 -55 175 0 175 0 0 55 0 55 60 0 60 0 0 60 0 60 60 0 60
0 0 115 0 115 -60 0 -60 0 0 60 0 60 60 0 60 0 0 55 0 55 -60 0 -60 0 0 60 0
60 -465 0 -465 0 0 -115z m810 -290 l0 -175 -175 0 -175 0 0 55 0 55 -55 0
-55 0 0 120 0 120 230 0 230 0 0 -175z"/>
<path d="M12110 12150 l0 -60 55 0 55 0 0 60 0 60 -55 0 -55 0 0 -60z"/>
<path d="M20830 11340 l0 -60 -115 0 -115 0 0 -60 0 -60 175 0 175 0 0 120 0
120 -60 0 -60 0 0 -60z"/>
<path d="M1640 11220 l0 -60 -60 0 -60 0 0 -230 0 -230 115 0 115 0 0 -60 0
-60 120 0 120 0 0 60 0 60 115 0 115 0 0 115 0 115 60 0 60 0 0 60 0 60 -60 0
-60 0 0 115 0 115 -290 0 -290 0 0 -60z m230 -230 l0 -60 -60 0 -60 0 0 -60 0
-60 -55 0 -55 0 0 120 0 120 115 0 115 0 0 -60z m230 -60 l0 -120 -55 0 -55 0
0 120 0 120 55 0 55 0 0 -120z"/>
<path d="M9660 11105 l0 -55 60 0 60 0 0 55 0 55 -60 0 -60 0 0 -55z"/>
<path d="M1170 10990 l0 -60 120 0 120 0 0 60 0 60 -120 0 -120 0 0 -60z"/>
<path d="M11290 10990 l0 -60 60 0 60 0 0 60 0 60 -60 0 -60 0 0 -60z"/>
<path d="M17690 10870 l0 -60 -60 0 -60 0 0 -230 0 -230 120 0 120 0 0 115 0
115 55 0 55 0 0 175 0 175 -115 0 -115 0 0 -60z"/>
<path d="M19900 10815 l0 -115 525 0 525 0 0 115 0 115 -525 0 -525 0 0 -115z"/>
<path d="M11530 10755 l0 -55 55 0 55 0 0 55 0 55 -55 0 -55 0 0 -55z"/>
<path d="M1520 10465 l0 -115 -55 0 -55 0 0 60 0 60 -120 0 -120 0 0 -60 0
-60 60 0 60 0 0 -60 0 -60 115 0 115 0 0 -55 0 -55 115 0 115 0 0 55 0 55 235
0 235 0 0 120 0 120 -175 0 -175 0 0 -60 0 -60 -60 0 -60 0 0 60 0 60 -55 0
-55 0 0 55 0 55 -60 0 -60 0 0 -115z"/>
<path d="M20480 10525 l0 -55 -175 0 -175 0 0 -60 0 -60 -115 0 -115 0 0 -115
0 -115 115 0 115 0 0 -60 0 -60 120 0 120 0 0 -60 0 -60 115 0 115 0 0 60 0
60 -60 0 -60 0 0 60 0 60 -55 0 -55 0 0 115 0 115 115 0 115 0 0 60 0 60 55 0
55 0 0 55 0 55 -115 0 -115 0 0 -55z"/>
<path d="M1750 9940 l0 -60 -55 0 -55 0 0 -290 0 -290 350 0 350 0 0 60 0 60
55 0 55 0 0 55 0 55 -350 0 -350 0 0 120 0 120 175 0 175 0 0 55 0 55 120 0
120 0 0 60 0 60 -295 0 -295 0 0 -60z"/>
<path d="M19900 9710 l0 -60 -60 0 -60 0 0 -230 0 -230 60 0 60 0 0 -60 0 -60
60 0 60 0 0 -60 0 -60 115 0 115 0 0 60 0 60 115 0 115 0 0 115 0 115 60 0 60
0 0 60 0 60 -60 0 -60 0 0 115 0 115 -55 0 -55 0 0 60 0 60 -235 0 -235 0 0
-60z m470 -350 l0 -170 -175 0 -175 0 0 55 0 55 -60 0 -60 0 0 115 0 115 235
0 235 0 0 -170z"/>
<path d="M17570 9415 l0 -115 60 0 60 0 0 60 0 60 60 0 60 0 0 55 0 55 -120 0
-120 0 0 -115z"/>
<path d="M1990 9130 l0 -60 -60 0 -60 0 0 -115 0 -115 -60 0 -60 0 0 -60 0
-60 60 0 60 0 0 -115 0 -115 60 0 60 0 0 -60 0 -60 175 0 175 0 0 60 0 60 115
0 115 0 0 290 0 290 -115 0 -115 0 0 60 0 60 -175 0 -175 0 0 -60z m350 -235
l0 -55 55 0 55 0 0 -60 0 -60 -55 0 -55 0 0 -60 0 -60 -175 0 -175 0 0 175 0
175 175 0 175 0 0 -55z"/>
<path d="M19670 8835 l0 -115 115 0 115 0 0 -60 0 -60 235 0 235 0 0 120 0
120 -235 0 -235 0 0 55 0 55 -115 0 -115 0 0 -115z"/>
<path d="M15950 8780 l0 -60 -60 0 -60 0 0 -115 0 -115 -60 0 -60 0 0 -175 0
-175 60 0 60 0 0 -115 0 -115 60 0 60 0 0 55 0 55 55 0 55 0 0 410 0 410 -55
0 -55 0 0 -60z"/>
<path d="M20480 8605 l0 -115 60 0 60 0 0 55 0 55 55 0 55 0 0 60 0 60 -115 0
-115 0 0 -115z"/>
<path d="M19550 8485 l0 -115 60 0 60 0 0 -55 0 -55 175 0 175 0 0 -175 0
-175 -120 0 -120 0 0 55 0 55 -170 0 -170 0 0 -55 0 -55 -60 0 -60 0 0 -235 0
-235 60 0 60 0 0 -60 0 -60 230 0 230 0 0 60 0 60 60 0 60 0 0 235 0 235 55 0
55 0 0 55 0 55 60 0 60 0 0 175 0 175 -115 0 -115 0 0 60 0 60 -175 0 -175 0
0 55 0 55 -60 0 -60 0 0 -115z m120 -755 l0 -60 115 0 115 0 0 -55 0 -55 -60
0 -60 0 0 -60 0 -60 -55 0 -55 0 0 115 0 115 -60 0 -60 0 0 -115 0 -115 -55 0
-55 0 0 175 0 175 115 0 115 0 0 -60z"/>
<path d="M2340 8200 l0 -60 55 0 55 0 0 -60 0 -60 120 0 120 0 0 -175 0 -175
-60 0 -60 0 0 -55 0 -55 -235 0 -235 0 0 55 0 55 -55 0 -55 0 0 120 0 120 55
0 55 0 0 55 0 55 -115 0 -115 0 0 -290 0 -290 115 0 115 0 0 -60 0 -60 235 0
235 0 0 60 0 60 115 0 115 0 0 115 0 115 60 0 60 0 0 175 0 175 -60 0 -60 0 0
60 0 60 -55 0 -55 0 0 60 0 60 -175 0 -175 0 0 -60z"/>
<path d="M15250 7850 l0 -60 -60 0 -60 0 0 -60 0 -60 -55 0 -55 0 0 -115 0
-115 -60 0 -60 0 0 -290 0 -290 175 0 175 0 0 115 0 115 55 0 55 0 0 410 0
410 -55 0 -55 0 0 -60z"/>
<path d="M14200 6800 l0 -60 -115 0 -115 0 0 -55 0 -55 -60 0 -60 0 0 -120 0
-120 -55 0 -55 0 0 -115 0 -115 -60 0 -60 0 0 -115 0 -115 175 0 175 0 0 60 0
60 55 0 55 0 0 55 0 55 60 0 60 0 0 115 0 115 60 0 60 0 0 235 0 235 -60 0
-60 0 0 -60z"/>
<path d="M15710 6800 l0 -60 -115 0 -115 0 0 -55 0 -55 -60 0 -60 0 0 -120 0
-120 295 0 295 0 0 60 0 60 55 0 55 0 0 175 0 175 -175 0 -175 0 0 -60z"/>
<path d="M14900 6450 l0 -60 60 0 60 0 0 60 0 60 -60 0 -60 0 0 -60z"/>
<path d="M14200 5640 l0 -60 -115 0 -115 0 0 -60 0 -60 55 0 55 0 0 -55 0 -55
120 0 120 0 0 -60 0 -60 230 0 230 0 0 60 0 60 120 0 120 0 0 55 0 55 55 0 55
0 0 60 0 60 -55 0 -55 0 0 60 0 60 -410 0 -410 0 0 -60z"/>
<path d="M5940 2150 l0 -60 -55 0 -55 0 0 -115 0 -115 -60 0 -60 0 0 -350 0
-350 60 0 60 0 0 -60 0 -60 55 0 55 0 0 -55 0 -55 410 0 410 0 0 115 0 115 55
0 55 0 0 60 0 60 -55 0 -55 0 0 55 0 55 -120 0 -120 0 0 -55 0 -55 -55 0 -55
0 0 -60 0 -60 -120 0 -120 0 0 60 0 60 -55 0 -55 0 0 230 0 230 55 0 55 0 0
60 0 60 175 0 175 0 0 -60 0 -60 120 0 120 0 0 60 0 60 55 0 55 0 0 55 0 55
-55 0 -55 0 0 60 0 60 -60 0 -60 0 0 60 0 60 -350 0 -350 0 0 -60z"/>
<path d="M7340 2150 l0 -60 -60 0 -60 0 0 -60 0 -60 -55 0 -55 0 0 -170 0
-170 -60 0 -60 0 0 -60 0 -60 60 0 60 0 0 -175 0 -175 55 0 55 0 0 -115 0
-115 410 0 410 0 0 55 0 55 55 0 55 0 0 60 0 60 60 0 60 0 0 405 0 405 -60 0
-60 0 0 60 0 60 -55 0 -55 0 0 60 0 60 -350 0 -350 0 0 -60z m580 -580 l0
-290 -60 0 -60 0 0 -60 0 -60 -115 0 -115 0 0 60 0 60 -60 0 -60 0 0 290 0
290 235 0 235 0 0 -290z"/>
<path d="M8500 1570 l0 -640 175 0 175 0 0 230 0 230 235 0 235 0 0 60 0 60
55 0 55 0 0 60 0 60 -55 0 -55 0 0 55 0 55 -235 0 -235 0 0 60 0 60 60 0 60 0
0 55 0 55 230 0 230 0 0 120 0 120 -465 0 -465 0 0 -640z"/>
<path d="M9660 1570 l0 -640 525 0 525 0 0 115 0 115 -290 0 -290 0 0 60 0 60
-60 0 -60 0 0 55 0 55 60 0 60 0 0 60 0 60 235 0 235 0 0 115 0 115 -295 0
-295 0 0 60 0 60 60 0 60 0 0 55 0 55 290 0 290 0 0 120 0 120 -525 0 -525 0
0 -640z"/>
<path d="M10940 1570 l0 -640 465 0 465 0 0 55 0 55 60 0 60 0 0 465 0 465
-60 0 -60 0 0 60 0 60 -55 0 -55 0 0 60 0 60 -410 0 -410 0 0 -640z m700 0 l0
-290 -55 0 -55 0 0 -60 0 -60 -60 0 -60 0 0 60 0 60 -60 0 -60 0 0 290 0 290
175 0 175 0 0 -290z"/>
<path d="M12570 2150 l0 -60 -55 0 -55 0 0 -175 0 -175 -60 0 -60 0 0 -175 0
-175 -60 0 -60 0 0 -115 0 -115 -55 0 -55 0 0 -115 0 -115 175 0 175 0 0 55 0
55 55 0 55 0 0 60 0 60 175 0 175 0 0 -60 0 -60 60 0 60 0 0 -55 0 -55 175 0
175 0 0 115 0 115 -60 0 -60 0 0 115 0 115 -60 0 -60 0 0 175 0 175 -55 0 -55
0 0 175 0 175 -60 0 -60 0 0 60 0 60 -175 0 -175 0 0 -60z m240 -585 l0 -175
-60 0 -60 0 0 175 0 175 60 0 60 0 0 -175z"/>
<path d="M13500 1570 l0 -640 525 0 525 0 0 115 0 115 -60 0 -60 0 0 60 0 60
-230 0 -230 0 0 465 0 465 -235 0 -235 0 0 -640z"/>
<path d="M14900 2150 l0 -60 -60 0 -60 0 0 -60 0 -60 -55 0 -55 0 0 -405 0
-405 55 0 55 0 0 -60 0 -60 60 0 60 0 0 -55 0 -55 350 0 350 0 0 55 0 55 55 0
55 0 0 60 0 60 60 0 60 0 0 60 0 60 -60 0 -60 0 0 55 0 55 -115 0 -115 0 0
-55 0 -55 -60 0 -60 0 0 -60 0 -60 -115 0 -115 0 0 60 0 60 -55 0 -55 0 0 290
0 290 230 0 230 0 0 -60 0 -60 115 0 115 0 0 175 0 175 -55 0 -55 0 0 60 0 60
-350 0 -350 0 0 -60z"/>
<path d="M16060 1570 l0 -640 175 0 175 0 0 640 0 640 -175 0 -175 0 0 -640z"/>
</g>
</svg>
